<svg id="Layer_1" xmlns="http://www.w3.org/2000/svg" viewBox="0 0 118.6 93.7"><style>.st0{fill:url(#SVGID_1_);} .st1{fill:url(#SVGID_2_);} .st2{fill:#3B3835;}</style><linearGradient id="SVGID_1_" gradientUnits="userSpaceOnUse" x1="-5516.646" y1="-5.38" x2="-5473.78" y2="51.933" gradientTransform="matrix(-1 0 0 1 -5444.68 0)"><stop offset=".291" stop-color="#E71D73"/><stop offset=".442" stop-color="#D31E77"/><stop offset=".699" stop-color="#B31F7C"/><stop offset=".892" stop-color="#9E1F80"/><stop offset="1" stop-color="#952081"/></linearGradient><path class="st0" d="M3.4 20.7C11.7 2.8 33-5 50.9 3.4 68.8 11.7 76.6 33 68.2 50.9 64 59.9 56.6 66.3 48 69.4l5.1 14.1c.8 2.3-.4 4.9-2.8 5.7-1.4.5-2.9.3-4.1-.5L14.5 64.5c-.1 0-.1-.1-.2-.1l-.7-.5C.9 53.8-3.8 36 3.4 20.7z"/><linearGradient id="SVGID_2_" gradientUnits="userSpaceOnUse" x1="100.521" y1="73.234" x2="58.406" y2="5.305"><stop offset="0" stop-color="#952081"/><stop offset=".121" stop-color="#9E1F80"/><stop offset=".341" stop-color="#B31F7C"/><stop offset=".63" stop-color="#D31E77"/><stop offset=".801" stop-color="#E71D73"/></linearGradient><path class="st1" d="M117.1 36.3C112 20.4 95 11.6 79.1 16.7c-1.6.5-3.1 1.2-4.6 1.9 4.8 10.8 5.1 23.5-.3 35-2.1 4.6-5 8.6-8.4 12 2.5 2.8 5.4 5.1 8.7 6.8l-5.8 11.3c-.9 1.9-.2 4.2 1.7 5.1 1.1.6 2.4.5 3.5 0L103.1 72c.1 0 .1-.1.2-.1l.6-.4c11.7-7 17.6-21.5 13.2-35.2z"/><g><path class="st2" d="M159.7 39.1c-.1-.2-.1-.5-.1-.8 0-2.6 2.9-4.5 7.3-4.5 4.1 0 8.1 1.3 11 3.2 1.1.7 2 1.4 2.7 2.2l1.5-2.7 3.4-5.9c-4.6-3.6-10.8-6.3-18.6-6.3-12.3 0-19 6.8-19 14.6 0 .6 0 1.1.1 1.6 1.6 16.2 27.3 10.6 27.3 17.9 0 2.9-2.5 4.9-7.8 4.9-5.8 0-12.6-3.2-16-6.4l-5.3 8.8c4.9 4.5 12.7 7.2 20.7 7.2 12.8 0 20.1-6.2 20.1-14.8 0-18-25.3-13.4-27.3-19zM254.6 27.9c-7.8-5.3-20.6-5.5-28.4-.2h-.1-.1c-10.5-7.1-29.9-4.4-34.2 7.4-.5 1.5-.8 3.1-.8 4.9v31.7h12.6V40c0-8.3 16.2-8.4 16.2 0h.1v31.7h12.6V40c0-8.4 16.2-8.3 16.2 0v31.7h12.6V40c-.1-5.3-2.7-9.4-6.7-12.1zM395.4 35.1c4.2 0 7.6 1.7 9.8 5l8-7.5c-3.1-4.2-8.8-8.3-18.3-8.3-14.2 0-24.5 10.1-24.5 24.3 0 14.3 10.4 24.3 24.5 24.3 9.5 0 15.2-4.2 18.3-8.4l-8-7.5c-2.2 3.2-5.6 5.1-9.8 5.1-7.4 0-12.6-5.5-12.6-13.5s5.2-13.5 12.6-13.5zM429.7 25.3V6.9c-3.8.4-8 .9-12.5 1.4V71.6h12.5V38.9c1.6-7.3 18.5-7 18.5.9v31.8h12.6V40.1c0-13.9-16.6-19-31.1-14.8zM289.5 24.2c-15.2 0-24.4 11.1-24.4 24.3s9.2 24.3 24.4 24.3c15.3 0 24.5-11.2 24.5-24.3s-9.1-24.3-24.5-24.3zm0 37.8c-7.6 0-11.8-6.2-11.8-13.5 0-7.2 4.2-13.4 11.8-13.4 7.7 0 11.9 6.2 11.9 13.4 0 7.3-4.2 13.5-11.9 13.5zM342.6 24.2c-15.2 0-24.4 11.1-24.4 24.3s9.2 24.3 24.4 24.3c15.3 0 24.5-11.2 24.5-24.3s-9.1-24.3-24.5-24.3zm0 37.8c-7.6 0-11.8-6.2-11.8-13.5 0-7.2 4.2-13.4 11.8-13.4 7.7 0 11.9 6.2 11.9 13.4 0 7.3-4.2 13.5-11.9 13.5z"/></g></svg>