<?xml version="1.0" encoding="utf-8"?>
<!-- Generator: Adobe Illustrator 19.2.0, SVG Export Plug-In . SVG Version: 6.00 Build 0)  -->
<svg version="1.1" id="Calque_1" xmlns="http://www.w3.org/2000/svg" xmlns:xlink="http://www.w3.org/1999/xlink" x="0px" y="0px"
	 viewBox="0 0 602.4 89.5" style="enable-background:new 0 0 602.4 89.5;" xml:space="preserve">
<style type="text/css">
	.st0{fill:#403351;}
	.st1{fill:url(#SVGID_1_);}
	.st2{fill:url(#SVGID_2_);}
	.st3{fill:#333333;}
</style>
<rect x="794.4" y="447.5" style="fill:none;" width="248" height="248.3"/>
<text transform="matrix(1 0 0 1 794.3842 461.4707)" class="st0" style="font-family:'ProximaNova-Regular'; font-size:21px;">docs</text>
<g>
	
		<linearGradient id="SVGID_1_" gradientUnits="userSpaceOnUse" x1="-6074.624" y1="94.8704" x2="-6031.7578" y2="37.5574" gradientTransform="matrix(-1 0 0 -1 -6002.6519 89.4766)">
		<stop  offset="0.291" style="stop-color:#EE2A7B"/>
		<stop  offset="0.442" style="stop-color:#D42980"/>
		<stop  offset="0.699" style="stop-color:#B02887"/>
		<stop  offset="0.892" style="stop-color:#9A298C"/>
		<stop  offset="1" style="stop-color:#922A8E"/>
	</linearGradient>
	<path class="st1" d="M3.4,20.6C11.7,2.7,33-5,50.9,3.3c17.9,8.4,25.7,29.6,17.3,47.6C64,59.9,56.6,66.3,48,69.4l5.1,14.1
		c0.8,2.3-0.4,4.9-2.8,5.7c-1.4,0.5-2.9,0.3-4.1-0.5L14.5,64.5c-0.1,0-0.1-0.1-0.2-0.1l-0.7-0.5C0.9,53.8-3.8,36,3.4,20.6z"/>
	
		<linearGradient id="SVGID_2_" gradientUnits="userSpaceOnUse" x1="100.525" y1="16.245" x2="58.41" y2="84.174" gradientTransform="matrix(1 0 0 -1 0 89.4766)">
		<stop  offset="0" style="stop-color:#922A8E"/>
		<stop  offset="0.121" style="stop-color:#9A298C"/>
		<stop  offset="0.341" style="stop-color:#B02887"/>
		<stop  offset="0.63" style="stop-color:#D42980"/>
		<stop  offset="0.801" style="stop-color:#EE2A7B"/>
	</linearGradient>
	<path class="st2" d="M117.2,36.3C112.1,20.4,95,11.6,79.1,16.7c-1.6,0.5-3.1,1.2-4.6,1.9c4.8,10.8,5.1,23.5-0.3,35
		c-2.1,4.6-5,8.6-8.4,12c2.5,2.8,5.4,5.1,8.7,6.8l-5.9,11.3c-0.9,1.9-0.2,4.2,1.7,5.1c1.1,0.6,2.4,0.5,3.5,0l29.3-16.9
		c0.1,0,0.1-0.1,0.2-0.1l0.6-0.4C115.7,64.4,121.5,50,117.2,36.3z"/>
	<g>
		<path class="st3" d="M159.7,39c-0.1-0.2-0.1-0.5-0.1-0.8c0-2.6,2.9-4.5,7.3-4.5c4.1,0,8.1,1.3,11,3.2c1.1,0.7,2,1.4,2.7,2.2
			l1.5-2.7l3.4-5.9c-4.6-3.6-10.8-6.3-18.6-6.3c-12.3,0-19,6.8-19,14.6c0,0.6,0,1.1,0.1,1.6c1.6,16.2,27.3,10.6,27.3,17.9
			c0,2.9-2.5,4.9-7.8,4.9c-5.8,0-12.6-3.2-16-6.4l-5.3,8.8c4.9,4.5,12.7,7.2,20.7,7.2c12.8,0,20.1-6.2,20.1-14.8
			C187.1,40.1,161.7,44.7,159.7,39L159.7,39z M254.6,27.9c-7.8-5.3-20.6-5.5-28.4-0.2h-0.1H226c-10.5-7.1-29.9-4.4-34.2,7.4
			c-0.5,1.5-0.8,3.1-0.8,4.9v31.7h12.6V40c0-8.3,16.2-8.4,16.2,0h0.1v31.7h12.6V40c0-8.4,16.2-8.3,16.2,0v31.7h12.6V40
			C261.3,34.6,258.6,30.6,254.6,27.9z M395.4,35c4.2,0,7.6,1.7,9.8,5l8-7.5c-3.1-4.2-8.8-8.3-18.3-8.3c-14.2,0-24.5,10.1-24.5,24.3
			c0,14.3,10.4,24.3,24.5,24.3c9.5,0,15.2-4.2,18.3-8.4l-8-7.5c-2.2,3.2-5.6,5.1-9.8,5.1c-7.4,0-12.6-5.5-12.6-13.5
			S388.1,35,395.4,35z M429.7,25.3V6.9c-3.8,0.4-8,0.9-12.5,1.4v63.3h12.5V38.9c1.6-7.3,18.5-7,18.5,0.9v31.8h12.6V40.1
			C460.8,26.1,444.2,21.1,429.7,25.3z M289.5,24.2c-15.2,0-24.4,11.1-24.4,24.3s9.2,24.3,24.4,24.3c15.3,0,24.5-11.2,24.5-24.3
			S304.9,24.2,289.5,24.2z M289.5,62c-7.6,0-11.8-6.2-11.8-13.5c0-7.2,4.2-13.4,11.8-13.4c7.7,0,11.9,6.2,11.9,13.4
			S297.2,62,289.5,62z M342.7,24.2c-15.2,0-24.4,11.1-24.4,24.3s9.2,24.3,24.4,24.3c15.3,0,24.5-11.2,24.5-24.3S358,24.2,342.7,24.2
			z M342.7,62c-7.6,0-11.8-6.2-11.8-13.5c0-7.2,4.2-13.4,11.8-13.4c7.7,0,11.9,6.2,11.9,13.4C354.5,55.7,350.3,62,342.7,62z"/>
	</g>
	<g>
		<path class="st0" d="M511.9,57.6c-2,2.7-5.3,4.7-9,4.7c-7,0-11.9-5.3-11.9-14c0-8.5,4.9-14.1,11.9-14.1c3.6,0,6.9,1.8,9,4.7V24.7
			h4.2v36.9h-4.2V57.6z M511.9,42.2c-1.5-2.3-4.7-4.3-8-4.3c-5.4,0-8.6,4.4-8.6,10.4c0,5.9,3.2,10.3,8.6,10.3c3.3,0,6.5-1.9,8-4.2
			V42.2z"/>
		<path class="st0" d="M522.8,48.2c0-7.8,5.1-14,13.2-14c8.1,0,13.2,6.3,13.2,14s-5.1,14.1-13.2,14.1
			C527.9,62.2,522.8,55.9,522.8,48.2z M544.9,48.2c0-5.4-3.2-10.3-8.9-10.3c-5.7,0-8.9,4.9-8.9,10.3c0,5.5,3.2,10.4,8.9,10.4
			C541.7,58.5,544.9,53.7,544.9,48.2z"/>
		<path class="st0" d="M567.8,34.2c4.9,0,7.8,2,9.8,4.7l-2.8,2.5c-1.8-2.4-4-3.5-6.8-3.5c-5.7,0-9.2,4.4-9.2,10.3s3.5,10.4,9.2,10.4
			c2.8,0,5-1.1,6.8-3.5l2.8,2.5c-2,2.7-4.9,4.7-9.8,4.7c-8,0-13.3-6.1-13.3-14.1C554.4,40.3,559.8,34.2,567.8,34.2z"/>
		<path class="st0" d="M583.2,55c1.8,2,5.1,3.8,8.8,3.8c4.1,0,6.3-1.9,6.3-4.6c0-2.9-3.3-3.7-6.9-4.6c-4.5-1.1-9.7-2.3-9.7-7.8
			c0-4.2,3.6-7.7,10-7.7c4.5,0,7.8,1.7,9.9,3.9l-1.9,2.9c-1.6-1.9-4.5-3.4-8-3.4c-3.7,0-5.9,1.8-5.9,4.2c0,2.5,3,3.3,6.5,4.1
			c4.7,1.1,10,2.4,10,8.3c0,4.5-3.6,8.1-10.5,8.1c-4.4,0-8.1-1.3-10.8-4.2L583.2,55z"/>
	</g>
</g>
</svg>
